<svg xmlns="http://www.w3.org/2000/svg" viewBox="0 0 512 512" width="512" height="512">
  <defs>
    <linearGradient id="sky" x1="0" y1="0" x2="0" y2="1">
      <stop offset="0" stop-color="#6e65c6"/>
      <stop offset="1" stop-color="#4338ca"/>
    </linearGradient>
  </defs>
  <rect width="512" height="512" rx="112" fill="url(#sky)"/>
  <!-- moon -->
  <circle cx="368" cy="150" r="46" fill="#fdf6d8"/>
  <circle cx="352" cy="140" r="46" fill="url(#sky)"/>
  <!-- skyline -->
  <g fill="#f4f2ff">
    <rect x="86"  y="300" width="52" height="150" rx="4"/>
    <rect x="150" y="250" width="56" height="200" rx="4"/>
    <rect x="218" y="205" width="60" height="245" rx="4"/>
    <rect x="290" y="270" width="54" height="180" rx="4"/>
    <rect x="356" y="315" width="52" height="135" rx="4"/>
  </g>
  <!-- lit windows -->
  <g fill="#ffd76a">
    <rect x="100" y="322" width="10" height="14"/><rect x="118" y="322" width="10" height="14"/>
    <rect x="100" y="352" width="10" height="14"/><rect x="118" y="360" width="10" height="14"/>
    <rect x="164" y="272" width="12" height="16"/><rect x="184" y="272" width="12" height="16"/>
    <rect x="164" y="306" width="12" height="16"/><rect x="184" y="340" width="12" height="16"/>
    <rect x="234" y="228" width="12" height="16"/><rect x="256" y="228" width="12" height="16"/>
    <rect x="234" y="266" width="12" height="16"/><rect x="256" y="266" width="12" height="16"/>
    <rect x="234" y="304" width="12" height="16"/><rect x="256" y="342" width="12" height="16"/>
    <rect x="304" y="292" width="11" height="15"/><rect x="323" y="292" width="11" height="15"/>
    <rect x="304" y="326" width="11" height="15"/><rect x="323" y="360" width="11" height="15"/>
    <rect x="370" y="338" width="10" height="14"/><rect x="388" y="338" width="10" height="14"/>
    <rect x="370" y="370" width="10" height="14"/>
  </g>
</svg>
